raise_box
version=1
nRows=4
nColumns=115
inDegrees=yes
endheader
time HIPS_TX HIPS_TY HIPS_TZ HIPS_RX HIPS_RY HIPS_RZ SPINE_TX SPINE_TY SPINE_TZ SPINE_RX SPINE_RY SPINE_RZ CHEST_TX CHEST_TY CHEST_TZ CHEST_RX CHEST_RY CHEST_RZ NECK_TX NECK_TY NECK_TZ NECK_RX NECK_RY NECK_RZ SHOULDER_L_TX SHOULDER_L_TY SHOULDER_L_TZ SHOULDER_L_RX SHOULDER_L_RY SHOULDER_L_RZ ARM_L_TX ARM_L_TY ARM_L_TZ ARM_L_RX ARM_L_RY ARM_L_RZ FOREARM_L_TX FOREARM_L_TY FOREARM_L_TZ FOREARM_L_RX FOREARM_L_RY FOREARM_L_RZ HAND_L_TX HAND_L_TY HAND_L_TZ HAND_L_RX HAND_L_RY HAND_L_RZ SHOULDER_R_TX SHOULDER_R_TY SHOULDER_R_TZ SHOULDER_R_RX SHOULDER_R_RY SHOULDER_R_RZ ARM_R_TX ARM_R_TY ARM_R_TZ ARM_R_RX ARM_R_RY ARM_R_RZ FOREARM_R_TX FOREARM_R_TY FOREARM_R_TZ FOREARM_R_RX FOREARM_R_RY FOREARM_R_RZ HAND_R_TX HAND_R_TY HAND_R_TZ HAND_R_RX HAND_R_RY HAND_R_RZ UPLEG_L_TX UPLEG_L_TY UPLEG_L_TZ UPLEG_L_RX UPLEG_L_RY UPLEG_L_RZ LEG_L_TX LEG_L_TY LEG_L_TZ LEG_L_RX LEG_L_RY LEG_L_RZ FOOT_L_TX FOOT_L_TY FOOT_L_TZ FOOT_L_RX FOOT_L_RY FOOT_L_RZ UPLEG_R_TX UPLEG_R_TY UPLEG_R_TZ UPLEG_R_RX UPLEG_R_RY UPLEG_R_RZ LEG_R_TX LEG_R_TY LEG_R_TZ LEG_R_RX LEG_R_RY LEG_R_RZ FOOT_R_TX FOOT_R_TY FOOT_R_TZ FOOT_R_RX FOOT_R_RY FOOT_R_RZ HEAD_TX HEAD_TY HEAD_TZ HEAD_RX HEAD_RY HEAD_RZ
6.51941156 0.24776600 0.05720800 1.83998597 156.19844498 6.43714851 -176.76232316 0.00000000 0.00000000 0.00000000 -5.12271458 -0.00005334 0.00002310 0.00000000 0.00000000 0.00000000 -5.56970667 3.41417773 -1.38192846 0.00000000 0.00000000 0.00000000 9.19931692 -0.00003573 0.00002672 0.00000000 0.00000000 0.00000000 -3.15820216 -11.13977317 -2.44018710 0.00000000 0.00000000 0.00000000 -9.42689228 -6.68226186 -66.80936995 0.00000000 0.00000000 0.00000000 -179.99992167 -63.35868882 -179.99993385 0.00000000 0.00000000 0.00000000 70.84478794 -21.76595700 75.18832854 0.00000000 0.00000000 0.00000000 -4.19861278 13.24901657 6.57053305 0.00000000 0.00000000 0.00000000 -18.92774722 6.04735410 60.21834760 0.00000000 0.00000000 0.00000000 0.00294069 89.21030198 -0.00297742 0.00000000 0.00000000 0.00000000 52.99346460 13.49994281 -75.16956192 0.00000000 0.00000000 0.00000000 -46.13471937 16.13201769 10.67625566 0.00000000 0.00000000 0.00000000 30.90873142 -0.00359165 -0.00657580 0.00000000 0.00000000 0.00000000 -15.44227884 -9.43438034 -1.49160464 0.00000000 0.00000000 0.00000000 -45.15918434 -23.17716922 -11.63408604 0.00000000 0.00000000 0.00000000 26.49654967 0.00626110 0.01178649 0.00000000 0.00000000 0.00000000 -15.10315620 3.60436546 0.53709155 0.00000000 0.00000000 0.00000000 -37.24202593 -15.37805657 -8.23727335
6.53041458 0.24776600 0.05720800 1.83998597 156.19844498 6.43714851 -176.76232316 0.00000000 0.00000000 0.00000000 -5.12271458 -0.00005334 0.00002310 0.00000000 0.00000000 0.00000000 -5.56970667 3.41417773 -1.38192846 0.00000000 0.00000000 0.00000000 9.19931692 -0.00003573 0.00002672 0.00000000 0.00000000 0.00000000 -3.15820216 -11.13977317 -2.44018710 0.00000000 0.00000000 0.00000000 -9.42689228 -6.68226186 -66.80936995 0.00000000 0.00000000 0.00000000 -179.99992167 -63.35868882 -179.99993385 0.00000000 0.00000000 0.00000000 70.84478794 -21.76595700 75.18832854 0.00000000 0.00000000 0.00000000 -4.19861278 13.24901657 6.57053305 0.00000000 0.00000000 0.00000000 -18.92774722 6.04735410 60.21834760 0.00000000 0.00000000 0.00000000 0.00294069 89.21030198 -0.00297742 0.00000000 0.00000000 0.00000000 52.99346460 13.49994281 -75.16956192 0.00000000 0.00000000 0.00000000 -46.13471937 16.13201769 10.67625566 0.00000000 0.00000000 0.00000000 30.90873142 -0.00359165 -0.00657580 0.00000000 0.00000000 0.00000000 -15.44227884 -9.43438034 -1.49160464 0.00000000 0.00000000 0.00000000 -45.15918434 -23.17716922 -11.63408604 0.00000000 0.00000000 0.00000000 26.49654967 0.00626110 0.01178649 0.00000000 0.00000000 0.00000000 -15.10315620 3.60436546 0.53709155 0.00000000 0.00000000 0.00000000 -37.24202593 -15.37805657 -8.23727335
6.54142046 0.24873400 0.06246800 1.83407497 158.05684471 8.33048427 -176.92072890 0.00000000 0.00000000 0.00000000 -5.87014082 0.00003471 0.00003775 0.00000000 0.00000000 0.00000000 -3.82624403 1.16607888 -0.58163819 0.00000000 0.00000000 0.00000000 9.19937629 0.00000831 -0.00005177 0.00000000 0.00000000 0.00000000 -3.05404420 -10.02821693 -2.10967397 0.00000000 0.00000000 0.00000000 -8.80030575 -8.31859145 -61.34010599 0.00000000 0.00000000 0.00000000 179.99994310 -60.06506085 179.99984477 0.00000000 0.00000000 0.00000000 61.83788373 -25.60672956 75.31557710 0.00000000 0.00000000 0.00000000 -3.46055371 10.82172833 4.11553536 0.00000000 0.00000000 0.00000000 -15.60099215 13.78874563 62.60629891 0.00000000 0.00000000 0.00000000 -179.99879009 88.96791216 179.99880767 0.00000000 0.00000000 0.00000000 40.76061390 16.99800878 -71.68849454 0.00000000 0.00000000 0.00000000 -43.24843372 18.74111111 11.78262776 0.00000000 0.00000000 0.00000000 29.64112474 -0.00350644 -0.00666170 0.00000000 0.00000000 0.00000000 -14.46297788 -9.19655436 -1.29400271 0.00000000 0.00000000 0.00000000 -41.70970472 -21.12564064 -10.07039326 0.00000000 0.00000000 0.00000000 25.39199107 0.00612924 0.01199123 0.00000000 0.00000000 0.00000000 -13.31965781 3.24489882 0.37925168 0.00000000 0.00000000 0.00000000 -36.19879556 -11.21259607 -6.39003793
6.55241346 0.24873400 0.06246800 1.83407497 158.05684471 8.33048427 -176.92072890 0.00000000 0.00000000 0.00000000 -5.87014082 0.00003471 0.00003775 0.00000000 0.00000000 0.00000000 -3.82624403 1.16607888 -0.58163819 0.00000000 0.00000000 0.00000000 9.19937629 0.00000831 -0.00005177 0.00000000 0.00000000 0.00000000 -3.05404420 -10.02821693 -2.10967397 0.00000000 0.00000000 0.00000000 -8.80030575 -8.31859145 -61.34010599 0.00000000 0.00000000 0.00000000 179.99994310 -60.06506085 179.99984477 0.00000000 0.00000000 0.00000000 61.83788373 -25.60672956 75.31557710 0.00000000 0.00000000 0.00000000 -3.46055371 10.82172833 4.11553536 0.00000000 0.00000000 0.00000000 -15.60099215 13.78874563 62.60629891 0.00000000 0.00000000 0.00000000 -179.99879009 88.96791216 179.99880767 0.00000000 0.00000000 0.00000000 40.76061390 16.99800878 -71.68849454 0.00000000 0.00000000 0.00000000 -43.24843372 18.74111111 11.78262776 0.00000000 0.00000000 0.00000000 29.64112474 -0.00350644 -0.00666170 0.00000000 0.00000000 0.00000000 -14.46297788 -9.19655436 -1.29400271 0.00000000 0.00000000 0.00000000 -41.70970472 -21.12564064 -10.07039326 0.00000000 0.00000000 0.00000000 25.39199107 0.00612924 0.01199123 0.00000000 0.00000000 0.00000000 -13.31965781 3.24489882 0.37925168 0.00000000 0.00000000 0.00000000 -36.19879556 -11.21259607 -6.39003793
